{
  "accessors": [
    {
      "bufferView": 2,
      "componentType": 5126,
      "count": 1160,
      "max": [
        4.3571062088012695,
        5.662762641906738,
        3.1577422618865967
      ],
      "min": [
        -2.062553644180298,
        0.021865367889404297,
        -3.157743215560913
      ],
      "type": "VEC3"
    },
    {
      "bufferView": 2,
      "byteOffset": 13920,
      "componentType": 5126,
      "count": 1160,
      "max": [
        1.0,
        1.0,
        1.0
      ],
      "min": [
        -1.0,
        -1.0,
        -1.0
      ],
      "type": "VEC3"
    },
    {
      "bufferView": 1,
      "componentType": 5126,
      "count": 1160,
      "max": [
        1.0,
        1.0
      ],
      "min": [
        0.0,
        -7.450580596923828e-08
      ],
      "type": "VEC2"
    },
    {
      "bufferView": 0,
      "componentType": 5125,
      "count": 4884,
      "type": "SCALAR"
    },
    {
      "bufferView": 2,
      "byteOffset": 27840,
      "componentType": 5126,
      "count": 164,
      "max": [
        3.680912733078003,
        5.17521858215332,
        2.4891862869262695
      ],
      "min": [
        -1.3863601684570313,
        0.6073153018951416,
        -2.5210914611816406
      ],
      "type": "VEC3"
    },
    {
      "bufferView": 2,
      "byteOffset": 29808,
      "componentType": 5126,
      "count": 164,
      "max": [
        0.5034368634223938,
        0.9997817873954773,
        0.5013827681541443
      ],
      "min": [
        -0.9053611159324646,
        0.21655555069446564,
        -0.7912675738334656
      ],
      "type": "VEC3"
    },
    {
      "bufferView": 1,
      "byteOffset": 9280,
      "componentType": 5126,
      "count": 164,
      "max": [
        0.6264089941978455,
        1.0
      ],
      "min": [
        0.0,
        0.7173410058021545
      ],
      "type": "VEC2"
    },
    {
      "bufferView": 0,
      "byteOffset": 19536,
      "componentType": 5125,
      "count": 756,
      "type": "SCALAR"
    },
    {
      "bufferView": 2,
      "byteOffset": 31776,
      "componentType": 5126,
      "count": 4908,
      "max": [
        8.115935325622559,
        15.121697425842285,
        5.9347004890441895
      ],
      "min": [
        -9.392292976379395,
        3.003073215484619,
        -10.670433044433594
      ],
      "type": "VEC3"
    },
    {
      "bufferView": 2,
      "byteOffset": 90672,
      "componentType": 5126,
      "count": 4908,
      "max": [
        0.9981789588928223,
        0.9974977374076843,
        0.9999974370002747
      ],
      "min": [
        -0.9997216463088989,
        -1.0,
        -0.9999978542327881
      ],
      "type": "VEC3"
    },
    {
      "bufferView": 1,
      "byteOffset": 10592,
      "componentType": 5126,
      "count": 4908,
      "max": [
        1.0,
        1.0
      ],
      "min": [
        0.0,
        0.0
      ],
      "type": "VEC2"
    },
    {
      "bufferView": 0,
      "byteOffset": 22560,
      "componentType": 5125,
      "count": 22368,
      "type": "SCALAR"
    }
  ],
  "asset": {
    "extras": {
      "author": "laanita (https://sketchfab.com/laanita)",
      "license": "CC-BY-4.0 (http://creativecommons.org/licenses/by/4.0/)",
      "source": "https://sketchfab.com/3d-models/potted-plant-83986836419445edb3e507b9eb0c786b",
      "title": "Potted Plant"
    },
    "generator": "Sketchfab-12.66.0",
    "version": "2.0"
  },
  "bufferViews": [
    {
      "buffer": 0,
      "byteLength": 112032,
      "name": "floatBufferViews",
      "target": 34963
    },
    {
      "buffer": 0,
      "byteLength": 49856,
      "byteOffset": 112032,
      "byteStride": 8,
      "name": "floatBufferViews",
      "target": 34962
    },
    {
      "buffer": 0,
      "byteLength": 149568,
      "byteOffset": 161888,
      "byteStride": 12,
      "name": "floatBufferViews",
      "target": 34962
    }
  ],
  "buffers": [
    {
      "byteLength": 311456,
      "uri": "scene.bin"
    }
  ],
  "images": [
    {
      "uri": "textures/lambert4_baseColor.jpeg"
    }
  ],
  "materials": [
    {
      "doubleSided": true,
      "name": "lambert3",
      "pbrMetallicRoughness": {
        "baseColorFactor": [
          0.11753361943942052,
          0.007012014481568752,
          0.007012014481568752,
          1.0
        ],
        "metallicFactor": 0.1527254116610161,
        "roughnessFactor": 0.4923480531704501
      }
    },
    {
      "doubleSided": true,
      "name": "lambert4",
      "pbrMetallicRoughness": {
        "baseColorTexture": {
          "index": 0
        },
        "metallicFactor": 0.3225367324157331
      }
    },
    {
      "doubleSided": true,
      "name": "lambert2",
      "pbrMetallicRoughness": {
        "baseColorFactor": [
          0.019812160411067165,
          0.10021823973063392,
          0.0015562918804661147,
          1.0
        ],
        "metallicFactor": 0.0,
        "roughnessFactor": 0.49863736134655073
      }
    }
  ],
  "meshes": [
    {
      "name": "pCylinder1_lambert3_0",
      "primitives": [
        {
          "attributes": {
            "NORMAL": 1,
            "POSITION": 0,
            "TEXCOORD_0": 2
          },
          "indices": 3,
          "material": 0,
          "mode": 4
        }
      ]
    },
    {
      "name": "pCylinder1_lambert4_0",
      "primitives": [
        {
          "attributes": {
            "NORMAL": 5,
            "POSITION": 4,
            "TEXCOORD_0": 6
          },
          "indices": 7,
          "material": 1,
          "mode": 4
        }
      ]
    },
    {
      "name": "polySurface7_lambert2_0",
      "primitives": [
        {
          "attributes": {
            "NORMAL": 9,
            "POSITION": 8,
            "TEXCOORD_0": 10
          },
          "indices": 11,
          "material": 2,
          "mode": 4
        }
      ]
    }
  ],
  "nodes": [
    {
      "children": [
        1
      ],
      "matrix": [
        1.0,
        0.0,
        0.0,
        0.0,
        0.0,
        2.220446049250313e-16,
        -1.0,
        0.0,
        0.0,
        1.0,
        2.220446049250313e-16,
        0.0,
        0.0,
        0.0,
        0.0,
        1.0
      ],
      "name": "Sketchfab_model"
    },
    {
      "children": [
        2
      ],
      "matrix": [
        1.0,
        0.0,
        0.0,
        0.0,
        0.0,
        0.0,
        1.0,
        0.0,
        0.0,
        -1.0,
        0.0,
        0.0,
        0.0,
        0.0,
        0.0,
        1.0
      ],
      "name": "024bc0a477914d919a8c7359f7ba50cc.fbx"
    },
    {
      "children": [
        3,
        6
      ],
      "name": "RootNode"
    },
    {
      "children": [
        4,
        5
      ],
      "name": "pCylinder1"
    },
    {
      "mesh": 0,
      "name": "pCylinder1_lambert3_0"
    },
    {
      "mesh": 1,
      "name": "pCylinder1_lambert4_0"
    },
    {
      "children": [
        7
      ],
      "name": "polySurface7"
    },
    {
      "mesh": 2,
      "name": "polySurface7_lambert2_0"
    }
  ],
  "samplers": [
    {
      "magFilter": 9729,
      "minFilter": 9987,
      "wrapS": 10497,
      "wrapT": 10497
    }
  ],
  "scene": 0,
  "scenes": [
    {
      "name": "Sketchfab_Scene",
      "nodes": [
        0
      ]
    }
  ],
  "textures": [
    {
      "sampler": 0,
      "source": 0
    }
  ]
}
